# xmcd
#
# Track frame offsets: 
#        150
#        15403
#        27762
#        38724
#        50465
#        67708
#        80307
#        94702
#        104952
#        118269
#
# Disc length: 1772 seconds
#
# Revision: 0
# Processed by: cddbd v1.5.2PL0 Copyright (c) Steve Scherf et al.
# Submitted via: ExactAudioCopy v0.90b4
#
DISCID=7506ea0a
DTITLE=Jim O'Hern - Weathered Heart
DYEAR=2004
DGENRE=Folk
TTITLE0=Weathered Heart
TTITLE1=Let's Chase Each Other
TTITLE2=Stormy Weather
TTITLE3=Wurlitzer Prize
TTITLE4=Cry
TTITLE5=Crazy Arms
TTITLE6=Just Out of Reach
TTITLE7=Danny Boy
TTITLE8=Walk Right Back
TTITLE9=Crazy
EXTD=
EXTT0=
EXTT1=
EXTT2=
EXTT3=
EXTT4=
EXTT5=
EXTT6=
EXTT7=
EXTT8=
EXTT9=
PLAYORDER=
